<mxfile host="app.diagrams.net" modified="2022-06-22T10:31:01.016Z" agent="5.0 (Windows NT 10.0; Win64; x64) AppleWebKit/537.36 (KHTML, like Gecko) Chrome/96.0.4664.93 Safari/537.36" etag="Y6KsT834zC-4hc68K6UI" version="20.0.1" type="github">
  <diagram id="C5RBs43oDa-KdzZeNtuy" name="Page-1">
    <mxGraphModel dx="1422" dy="762" grid="1" gridSize="10" guides="1" tooltips="1" connect="1" arrows="1" fold="1" page="1" pageScale="1" pageWidth="827" pageHeight="1169" math="0" shadow="0">
      <root>
        <mxCell id="WIyWlLk6GJQsqaUBKTNV-0" />
        <mxCell id="WIyWlLk6GJQsqaUBKTNV-1" parent="WIyWlLk6GJQsqaUBKTNV-0" />
        <mxCell id="QKYt8Ws6Qa6i0QdsFvAu-5" style="edgeStyle=orthogonalEdgeStyle;rounded=0;orthogonalLoop=1;jettySize=auto;html=1;exitX=0.5;exitY=1;exitDx=0;exitDy=0;entryX=0.5;entryY=0;entryDx=0;entryDy=0;" edge="1" parent="WIyWlLk6GJQsqaUBKTNV-1" source="WIyWlLk6GJQsqaUBKTNV-3" target="QKYt8Ws6Qa6i0QdsFvAu-0">
          <mxGeometry relative="1" as="geometry" />
        </mxCell>
        <mxCell id="QKYt8Ws6Qa6i0QdsFvAu-28" value="" style="edgeStyle=orthogonalEdgeStyle;rounded=0;orthogonalLoop=1;jettySize=auto;html=1;" edge="1" parent="WIyWlLk6GJQsqaUBKTNV-1" source="WIyWlLk6GJQsqaUBKTNV-3" target="QKYt8Ws6Qa6i0QdsFvAu-27">
          <mxGeometry relative="1" as="geometry" />
        </mxCell>
        <mxCell id="WIyWlLk6GJQsqaUBKTNV-3" value="定义流程表单" style="rounded=1;whiteSpace=wrap;html=1;fontSize=12;glass=0;strokeWidth=1;shadow=0;fillColor=#1ba1e2;fontColor=#ffffff;strokeColor=#006EAF;" parent="WIyWlLk6GJQsqaUBKTNV-1" vertex="1">
          <mxGeometry x="160" y="80" width="120" height="40" as="geometry" />
        </mxCell>
        <mxCell id="QKYt8Ws6Qa6i0QdsFvAu-7" value="" style="edgeStyle=orthogonalEdgeStyle;rounded=0;orthogonalLoop=1;jettySize=auto;html=1;" edge="1" parent="WIyWlLk6GJQsqaUBKTNV-1" source="WIyWlLk6GJQsqaUBKTNV-11" target="QKYt8Ws6Qa6i0QdsFvAu-6">
          <mxGeometry relative="1" as="geometry" />
        </mxCell>
        <mxCell id="QKYt8Ws6Qa6i0QdsFvAu-31" style="edgeStyle=orthogonalEdgeStyle;rounded=0;orthogonalLoop=1;jettySize=auto;html=1;exitX=1;exitY=0.5;exitDx=0;exitDy=0;entryX=0;entryY=0.5;entryDx=0;entryDy=0;" edge="1" parent="WIyWlLk6GJQsqaUBKTNV-1" source="WIyWlLk6GJQsqaUBKTNV-11" target="QKYt8Ws6Qa6i0QdsFvAu-29">
          <mxGeometry relative="1" as="geometry" />
        </mxCell>
        <mxCell id="WIyWlLk6GJQsqaUBKTNV-11" value="设计流程" style="rounded=1;whiteSpace=wrap;html=1;fontSize=12;glass=0;strokeWidth=1;shadow=0;fillColor=#d80073;fontColor=#ffffff;strokeColor=#A50040;" parent="WIyWlLk6GJQsqaUBKTNV-1" vertex="1">
          <mxGeometry x="160" y="240" width="120" height="40" as="geometry" />
        </mxCell>
        <mxCell id="QKYt8Ws6Qa6i0QdsFvAu-4" style="edgeStyle=orthogonalEdgeStyle;rounded=0;orthogonalLoop=1;jettySize=auto;html=1;exitX=0.5;exitY=1;exitDx=0;exitDy=0;entryX=0.5;entryY=0;entryDx=0;entryDy=0;" edge="1" parent="WIyWlLk6GJQsqaUBKTNV-1" source="QKYt8Ws6Qa6i0QdsFvAu-0" target="WIyWlLk6GJQsqaUBKTNV-11">
          <mxGeometry relative="1" as="geometry" />
        </mxCell>
        <mxCell id="QKYt8Ws6Qa6i0QdsFvAu-30" value="" style="edgeStyle=orthogonalEdgeStyle;rounded=0;orthogonalLoop=1;jettySize=auto;html=1;" edge="1" parent="WIyWlLk6GJQsqaUBKTNV-1" source="QKYt8Ws6Qa6i0QdsFvAu-0" target="QKYt8Ws6Qa6i0QdsFvAu-29">
          <mxGeometry relative="1" as="geometry" />
        </mxCell>
        <mxCell id="QKYt8Ws6Qa6i0QdsFvAu-0" value="定义流程定义" style="rounded=1;whiteSpace=wrap;html=1;fontSize=12;glass=0;strokeWidth=1;shadow=0;fillColor=#008a00;fontColor=#ffffff;strokeColor=#005700;" vertex="1" parent="WIyWlLk6GJQsqaUBKTNV-1">
          <mxGeometry x="160" y="160" width="120" height="40" as="geometry" />
        </mxCell>
        <mxCell id="QKYt8Ws6Qa6i0QdsFvAu-9" value="" style="edgeStyle=orthogonalEdgeStyle;rounded=0;orthogonalLoop=1;jettySize=auto;html=1;" edge="1" parent="WIyWlLk6GJQsqaUBKTNV-1" source="QKYt8Ws6Qa6i0QdsFvAu-6" target="QKYt8Ws6Qa6i0QdsFvAu-8">
          <mxGeometry relative="1" as="geometry" />
        </mxCell>
        <mxCell id="QKYt8Ws6Qa6i0QdsFvAu-33" value="" style="edgeStyle=orthogonalEdgeStyle;rounded=0;orthogonalLoop=1;jettySize=auto;html=1;" edge="1" parent="WIyWlLk6GJQsqaUBKTNV-1" source="QKYt8Ws6Qa6i0QdsFvAu-6" target="QKYt8Ws6Qa6i0QdsFvAu-32">
          <mxGeometry relative="1" as="geometry" />
        </mxCell>
        <mxCell id="QKYt8Ws6Qa6i0QdsFvAu-6" value="分配规则" style="whiteSpace=wrap;html=1;rounded=1;glass=0;strokeWidth=1;shadow=0;fillColor=#6a00ff;fontColor=#ffffff;strokeColor=#3700CC;" vertex="1" parent="WIyWlLk6GJQsqaUBKTNV-1">
          <mxGeometry x="160" y="320" width="120" height="40" as="geometry" />
        </mxCell>
        <mxCell id="QKYt8Ws6Qa6i0QdsFvAu-34" style="edgeStyle=orthogonalEdgeStyle;rounded=0;orthogonalLoop=1;jettySize=auto;html=1;exitX=1;exitY=0.5;exitDx=0;exitDy=0;entryX=0;entryY=0.5;entryDx=0;entryDy=0;" edge="1" parent="WIyWlLk6GJQsqaUBKTNV-1" source="QKYt8Ws6Qa6i0QdsFvAu-8" target="QKYt8Ws6Qa6i0QdsFvAu-29">
          <mxGeometry relative="1" as="geometry" />
        </mxCell>
        <mxCell id="QKYt8Ws6Qa6i0QdsFvAu-8" value="发布流程" style="whiteSpace=wrap;html=1;rounded=1;glass=0;strokeWidth=1;shadow=0;fillColor=#0050ef;fontColor=#ffffff;strokeColor=#001DBC;" vertex="1" parent="WIyWlLk6GJQsqaUBKTNV-1">
          <mxGeometry x="160" y="400" width="120" height="40" as="geometry" />
        </mxCell>
        <mxCell id="QKYt8Ws6Qa6i0QdsFvAu-10" style="edgeStyle=orthogonalEdgeStyle;rounded=0;orthogonalLoop=1;jettySize=auto;html=1;exitX=0.5;exitY=1;exitDx=0;exitDy=0;entryX=0.5;entryY=0;entryDx=0;entryDy=0;" edge="1" source="QKYt8Ws6Qa6i0QdsFvAu-11" target="QKYt8Ws6Qa6i0QdsFvAu-15" parent="WIyWlLk6GJQsqaUBKTNV-1">
          <mxGeometry relative="1" as="geometry" />
        </mxCell>
        <mxCell id="QKYt8Ws6Qa6i0QdsFvAu-37" value="" style="edgeStyle=orthogonalEdgeStyle;rounded=0;orthogonalLoop=1;jettySize=auto;html=1;" edge="1" parent="WIyWlLk6GJQsqaUBKTNV-1" source="QKYt8Ws6Qa6i0QdsFvAu-11" target="QKYt8Ws6Qa6i0QdsFvAu-36">
          <mxGeometry relative="1" as="geometry" />
        </mxCell>
        <mxCell id="QKYt8Ws6Qa6i0QdsFvAu-11" value="发起请假" style="rounded=1;whiteSpace=wrap;html=1;fontSize=12;glass=0;strokeWidth=1;shadow=0;fillColor=#6a00ff;fontColor=#ffffff;strokeColor=#3700CC;" vertex="1" parent="WIyWlLk6GJQsqaUBKTNV-1">
          <mxGeometry x="640" y="80" width="120" height="40" as="geometry" />
        </mxCell>
        <mxCell id="QKYt8Ws6Qa6i0QdsFvAu-12" value="" style="edgeStyle=orthogonalEdgeStyle;rounded=0;orthogonalLoop=1;jettySize=auto;html=1;exitX=0.5;exitY=1;exitDx=0;exitDy=0;" edge="1" source="QKYt8Ws6Qa6i0QdsFvAu-19" target="QKYt8Ws6Qa6i0QdsFvAu-17" parent="WIyWlLk6GJQsqaUBKTNV-1">
          <mxGeometry relative="1" as="geometry">
            <mxPoint x="700" y="340" as="sourcePoint" />
          </mxGeometry>
        </mxCell>
        <mxCell id="QKYt8Ws6Qa6i0QdsFvAu-14" style="edgeStyle=orthogonalEdgeStyle;rounded=0;orthogonalLoop=1;jettySize=auto;html=1;exitX=0.5;exitY=1;exitDx=0;exitDy=0;entryX=0.5;entryY=0;entryDx=0;entryDy=0;" edge="1" source="QKYt8Ws6Qa6i0QdsFvAu-15" target="QKYt8Ws6Qa6i0QdsFvAu-19" parent="WIyWlLk6GJQsqaUBKTNV-1">
          <mxGeometry relative="1" as="geometry">
            <mxPoint x="700" y="240" as="targetPoint" />
          </mxGeometry>
        </mxCell>
        <mxCell id="QKYt8Ws6Qa6i0QdsFvAu-39" value="" style="edgeStyle=orthogonalEdgeStyle;rounded=0;orthogonalLoop=1;jettySize=auto;html=1;" edge="1" parent="WIyWlLk6GJQsqaUBKTNV-1" source="QKYt8Ws6Qa6i0QdsFvAu-15" target="QKYt8Ws6Qa6i0QdsFvAu-38">
          <mxGeometry relative="1" as="geometry" />
        </mxCell>
        <mxCell id="QKYt8Ws6Qa6i0QdsFvAu-15" value="待审批任务" style="rounded=1;whiteSpace=wrap;html=1;fontSize=12;glass=0;strokeWidth=1;shadow=0;fillColor=#1ba1e2;fontColor=#ffffff;strokeColor=#006EAF;" vertex="1" parent="WIyWlLk6GJQsqaUBKTNV-1">
          <mxGeometry x="640" y="160" width="120" height="40" as="geometry" />
        </mxCell>
        <mxCell id="QKYt8Ws6Qa6i0QdsFvAu-41" style="edgeStyle=orthogonalEdgeStyle;rounded=0;orthogonalLoop=1;jettySize=auto;html=1;exitX=1;exitY=0.25;exitDx=0;exitDy=0;entryX=0;entryY=0.5;entryDx=0;entryDy=0;" edge="1" parent="WIyWlLk6GJQsqaUBKTNV-1" source="QKYt8Ws6Qa6i0QdsFvAu-17" target="QKYt8Ws6Qa6i0QdsFvAu-38">
          <mxGeometry relative="1" as="geometry">
            <Array as="points">
              <mxPoint x="800" y="370" />
              <mxPoint x="800" y="180" />
            </Array>
          </mxGeometry>
        </mxCell>
        <mxCell id="QKYt8Ws6Qa6i0QdsFvAu-17" value="已通过" style="whiteSpace=wrap;html=1;rounded=1;glass=0;strokeWidth=1;shadow=0;fillColor=#0050ef;fontColor=#ffffff;strokeColor=#001DBC;" vertex="1" parent="WIyWlLk6GJQsqaUBKTNV-1">
          <mxGeometry x="640" y="360" width="120" height="40" as="geometry" />
        </mxCell>
        <mxCell id="QKYt8Ws6Qa6i0QdsFvAu-21" value="" style="edgeStyle=orthogonalEdgeStyle;rounded=0;orthogonalLoop=1;jettySize=auto;html=1;" edge="1" parent="WIyWlLk6GJQsqaUBKTNV-1" source="QKYt8Ws6Qa6i0QdsFvAu-19" target="QKYt8Ws6Qa6i0QdsFvAu-20">
          <mxGeometry relative="1" as="geometry" />
        </mxCell>
        <mxCell id="QKYt8Ws6Qa6i0QdsFvAu-19" value="审批&lt;br&gt;是否通过" style="rhombus;whiteSpace=wrap;html=1;fillColor=#008a00;fontColor=#ffffff;strokeColor=#005700;" vertex="1" parent="WIyWlLk6GJQsqaUBKTNV-1">
          <mxGeometry x="660" y="240" width="80" height="80" as="geometry" />
        </mxCell>
        <mxCell id="QKYt8Ws6Qa6i0QdsFvAu-40" style="edgeStyle=orthogonalEdgeStyle;rounded=0;orthogonalLoop=1;jettySize=auto;html=1;exitX=0.5;exitY=0;exitDx=0;exitDy=0;entryX=0;entryY=0.5;entryDx=0;entryDy=0;" edge="1" parent="WIyWlLk6GJQsqaUBKTNV-1" source="QKYt8Ws6Qa6i0QdsFvAu-20" target="QKYt8Ws6Qa6i0QdsFvAu-38">
          <mxGeometry relative="1" as="geometry">
            <Array as="points">
              <mxPoint x="880" y="240" />
              <mxPoint x="850" y="240" />
              <mxPoint x="850" y="180" />
            </Array>
          </mxGeometry>
        </mxCell>
        <mxCell id="QKYt8Ws6Qa6i0QdsFvAu-20" value="未通过" style="ellipse;whiteSpace=wrap;html=1;fillColor=#d80073;fontColor=#ffffff;strokeColor=#A50040;" vertex="1" parent="WIyWlLk6GJQsqaUBKTNV-1">
          <mxGeometry x="830" y="255" width="100" height="50" as="geometry" />
        </mxCell>
        <mxCell id="QKYt8Ws6Qa6i0QdsFvAu-22" value="No" style="text;html=1;align=center;verticalAlign=middle;resizable=0;points=[];autosize=1;strokeColor=none;fillColor=none;" vertex="1" parent="WIyWlLk6GJQsqaUBKTNV-1">
          <mxGeometry x="750" y="280" width="30" height="20" as="geometry" />
        </mxCell>
        <mxCell id="QKYt8Ws6Qa6i0QdsFvAu-26" value="Yes" style="text;html=1;align=center;verticalAlign=middle;resizable=0;points=[];autosize=1;strokeColor=none;fillColor=none;" vertex="1" parent="WIyWlLk6GJQsqaUBKTNV-1">
          <mxGeometry x="700" y="330" width="40" height="20" as="geometry" />
        </mxCell>
        <mxCell id="QKYt8Ws6Qa6i0QdsFvAu-27" value="BpmFormController" style="whiteSpace=wrap;html=1;fillColor=#1ba1e2;strokeColor=#006EAF;fontColor=#ffffff;rounded=1;glass=0;strokeWidth=1;shadow=0;" vertex="1" parent="WIyWlLk6GJQsqaUBKTNV-1">
          <mxGeometry x="359" y="80" width="120" height="40" as="geometry" />
        </mxCell>
        <mxCell id="QKYt8Ws6Qa6i0QdsFvAu-29" value="BpmModelController" style="whiteSpace=wrap;html=1;fillColor=#008a00;strokeColor=#005700;fontColor=#ffffff;rounded=1;glass=0;strokeWidth=1;shadow=0;" vertex="1" parent="WIyWlLk6GJQsqaUBKTNV-1">
          <mxGeometry x="359" y="160" width="120" height="40" as="geometry" />
        </mxCell>
        <mxCell id="QKYt8Ws6Qa6i0QdsFvAu-32" value="BpmTaskAssignRuleController" style="whiteSpace=wrap;html=1;fillColor=#6a00ff;strokeColor=#3700CC;fontColor=#ffffff;rounded=1;glass=0;strokeWidth=1;shadow=0;" vertex="1" parent="WIyWlLk6GJQsqaUBKTNV-1">
          <mxGeometry x="359" y="320" width="181" height="40" as="geometry" />
        </mxCell>
        <mxCell id="QKYt8Ws6Qa6i0QdsFvAu-36" value="BpmOALeaveController" style="whiteSpace=wrap;html=1;fillColor=#6a00ff;strokeColor=#3700CC;fontColor=#ffffff;rounded=1;glass=0;strokeWidth=1;shadow=0;" vertex="1" parent="WIyWlLk6GJQsqaUBKTNV-1">
          <mxGeometry x="880" y="80" width="150" height="40" as="geometry" />
        </mxCell>
        <mxCell id="QKYt8Ws6Qa6i0QdsFvAu-38" value="BpmTaskController" style="whiteSpace=wrap;html=1;fillColor=#1ba1e2;strokeColor=#006EAF;fontColor=#ffffff;rounded=1;glass=0;strokeWidth=1;shadow=0;" vertex="1" parent="WIyWlLk6GJQsqaUBKTNV-1">
          <mxGeometry x="880" y="160" width="150" height="40" as="geometry" />
        </mxCell>
      </root>
    </mxGraphModel>
  </diagram>
</mxfile>
